<?xml version="1.0" standalone="no"?>
<!DOCTYPE svg PUBLIC "-//W3C//DTD SVG 20010904//EN"
 "http://www.w3.org/TR/2001/REC-SVG-20010904/DTD/svg10.dtd">
<svg version="1.0" xmlns="http://www.w3.org/2000/svg"
 width="1024.000000pt" height="1024.000000pt" viewBox="0 0 1024.000000 1024.000000"
 preserveAspectRatio="xMidYMid meet">

<g transform="translate(0.000000,1024.000000) scale(0.100000,-0.100000)"
fill="#000000" stroke="none">
<path d="M1 9653 c1 -586 1 -588 19 -520 21 78 43 129 65 147 8 7 15 16 15 21
0 25 106 128 138 134 9 1 41 11 70 20 148 49 363 -37 492 -194 11 -13 20 -28
20 -33 0 -20 47 -78 72 -89 23 -9 33 -8 55 7 16 10 37 29 48 43 69 89 105 111
182 111 44 0 97 -26 116 -58 6 -9 18 -11 33 -8 14 4 24 2 24 -4 0 -16 47 -12
54 5 6 17 36 21 36 5 0 -5 5 -10 10 -10 6 0 10 5 10 11 0 7 8 18 18 25 16 13
16 13 0 14 -26 0 -22 15 12 43 16 14 30 35 30 46 0 20 49 78 62 73 8 -2 23 65
19 90 -1 9 9 28 22 43 47 53 55 63 59 81 2 11 11 20 22 22 31 6 56 40 56 77 0
36 37 85 65 85 8 0 15 7 15 15 0 13 21 41 64 84 9 9 27 27 40 40 40 40 54 58
58 77 2 11 11 20 22 22 23 5 56 38 56 57 0 8 18 33 40 56 22 23 40 44 40 46 0
1 -486 3 -1080 3 l-1080 0 1 -587z m1436 -379 c-3 -3 -12 -4 -19 -1 -8 3 -5 6
6 6 11 1 17 -2 13 -5z"/>
<path d="M6400 10237 c0 -2 18 -23 40 -46 22 -23 40 -48 40 -56 0 -18 35 -55
53 -55 9 0 9 -2 1 -8 -9 -5 -8 -11 2 -20 8 -7 14 -10 14 -6 0 4 11 -5 25 -20
13 -14 30 -26 37 -26 22 0 92 -77 76 -83 -7 -3 -3 -6 10 -6 12 -1 22 -6 22
-12 0 -5 5 -7 11 -4 12 8 49 -22 49 -41 0 -6 14 -17 31 -23 17 -6 39 -21 49
-33 11 -13 19 -19 20 -15 0 17 60 -28 71 -55 6 -15 14 -28 18 -28 4 0 15 -22
26 -50 11 -27 25 -50 32 -50 7 0 13 -9 13 -20 0 -26 34 -60 59 -60 11 0 22 -4
25 -9 3 -5 22 -12 41 -15 26 -5 35 -12 35 -27 0 -11 8 -23 18 -26 9 -4 22 -12
28 -17 7 -6 24 -20 38 -30 14 -10 26 -24 26 -30 0 -6 24 -29 53 -52 40 -31 65
-42 101 -46 27 -3 51 -10 55 -16 3 -5 28 -13 56 -17 31 -4 54 -14 63 -26 7
-10 18 -19 23 -19 6 0 27 -16 47 -35 47 -45 71 -45 205 0 l105 35 144 -10 c79
-6 154 -13 168 -15 160 -28 198 -45 284 -130 64 -63 91 -107 101 -165 2 -8 8
-31 14 -50 25 -78 7 -206 -53 -385 -47 -139 -44 -159 26 -170 77 -13 182 -58
243 -103 98 -74 135 -124 150 -202 4 -19 11 -48 16 -65 4 -16 11 -47 14 -67 3
-21 16 -47 31 -60 86 -80 163 -233 168 -334 4 -103 101 -274 155 -274 7 0 53
-16 102 -35 92 -37 169 -52 212 -41 14 3 47 23 74 44 60 47 91 59 172 65 73 6
138 -16 179 -61 l22 -25 0 1566 0 1567 -1920 0 c-1056 0 -1920 -2 -1920 -3z"/>
<path d="M5650 9295 c0 -9 -7 -18 -15 -21 -19 -8 -54 -82 -62 -131 -8 -55 -26
-84 -79 -134 -81 -77 -127 -159 -89 -159 15 0 38 -33 30 -44 -3 -3 -2 -4 1 -1
8 6 64 -26 64 -37 0 -4 11 -18 25 -32 14 -14 25 -31 25 -37 0 -7 6 -20 14 -28
19 -23 26 -73 13 -92 -7 -9 -22 -19 -33 -23 -12 -4 -28 -20 -35 -37 -14 -35
-39 -68 -88 -115 -22 -22 -32 -39 -28 -51 3 -10 19 -56 36 -103 17 -47 31
-104 31 -127 l0 -43 49 0 c28 0 53 -4 56 -10 21 -34 83 23 120 110 21 50 93
149 109 150 5 0 17 6 25 14 9 8 42 23 73 34 32 10 55 21 53 24 -3 3 6 13 20
22 14 9 23 21 19 27 -3 6 -7 21 -8 34 -2 13 -11 31 -20 40 -9 10 -15 22 -13
29 2 6 -2 17 -10 24 -7 8 -11 17 -8 22 3 4 -2 11 -11 14 -14 5 -16 20 -11 99
3 57 11 105 21 124 25 50 32 138 12 168 -9 14 -23 25 -30 25 -7 0 -37 26 -65
58 -29 31 -72 79 -96 105 -25 26 -45 51 -45 55 0 5 -6 20 -12 35 -14 29 -38
37 -38 12z"/>
<path d="M3730 8889 c0 -5 5 -7 10 -4 6 3 10 8 10 11 0 2 -4 4 -10 4 -5 0 -10
-5 -10 -11z"/>
<path d="M594 8728 c-27 -18 -77 -69 -111 -113 -125 -162 -130 -164 -235 -111
-39 20 -79 36 -88 36 -15 0 -90 24 -143 45 -16 7 -17 -33 -17 -749 0 -416 1
-756 3 -756 33 0 129 -27 162 -46 24 -13 51 -24 59 -24 9 0 16 -4 16 -10 0 -5
19 -10 43 -10 45 0 77 19 96 58 7 12 16 20 21 17 5 -3 11 -1 15 5 3 5 15 10
26 10 27 0 69 40 69 66 0 32 -10 54 -25 54 -7 0 -18 13 -23 29 -18 51 47 157
111 181 18 7 53 23 78 36 26 13 57 24 69 24 39 0 177 -81 211 -123 27 -33 36
-38 62 -34 17 2 45 1 63 -3 28 -7 36 -3 64 26 39 42 69 50 108 30 68 -35 79
15 16 68 -35 28 -64 82 -64 116 0 22 32 80 43 80 16 0 33 25 45 67 18 62 74
105 165 128 99 25 153 16 201 -32 20 -20 42 -55 48 -77 7 -23 17 -44 22 -48
13 -9 54 1 83 19 35 23 125 28 182 9 96 -31 105 -36 93 -48 -7 -7 -12 -24 -12
-39 0 -15 -5 -31 -10 -34 -15 -9 -12 -75 6 -128 8 -25 14 -58 12 -74 -3 -27
-5 -28 -87 -37 -68 -7 -88 -6 -110 6 -21 12 -33 13 -66 3 -31 -9 -53 -9 -105
2 -117 24 -199 34 -198 23 3 -18 -40 -90 -53 -90 -9 0 -22 -7 -30 -16 -7 -9
-22 -14 -36 -11 -32 6 -123 -51 -102 -64 10 -6 6 -9 -15 -9 -28 0 -29 -1 -10
-15 19 -14 19 -14 -1 -15 -17 -1 -16 -3 5 -11 73 -29 109 -54 129 -89 28 -51
27 -61 -14 -89 -19 -13 -35 -27 -35 -32 0 -5 14 -24 30 -43 30 -33 60 -94 60
-118 0 -10 -2 -10 -9 1 -5 8 -16 11 -31 6 -16 -5 -21 -4 -18 6 6 18 -9 32 -52
49 -50 19 -58 29 -37 44 25 19 22 28 -23 70 -22 20 -40 41 -40 46 0 6 -7 10
-15 10 -8 0 -39 25 -70 56 -36 35 -66 56 -82 57 -23 2 -27 -4 -39 -51 -8 -29
-19 -62 -24 -73 -14 -25 -60 -26 -67 0 -3 10 -15 21 -26 24 -12 3 -42 13 -66
22 -33 12 -46 13 -57 4 -9 -7 -31 -9 -59 -6 -35 5 -43 4 -39 -7 3 -8 -3 -17
-14 -20 -11 -4 -31 -18 -46 -32 -14 -14 -29 -23 -34 -20 -6 3 -12 -10 -14 -29
-2 -19 -1 -35 2 -35 3 0 6 -8 7 -18 1 -10 18 -45 37 -78 38 -63 76 -160 76
-192 0 -43 45 -74 199 -136 57 -23 65 -24 84 -11 25 17 47 20 47 5 0 -5 -12
-10 -27 -11 -24 0 -25 -2 -9 -8 13 -5 16 -10 8 -15 -14 -9 -122 -5 -122 4 0 4
-23 10 -52 12 -39 4 -56 11 -66 27 -8 11 -22 21 -32 21 -12 0 -20 15 -29 58
-16 73 -44 152 -53 152 -4 0 -5 -13 -2 -30 8 -38 -3 -80 -20 -80 -28 0 -156
47 -149 54 5 5 -1 6 -12 4 -11 -2 -20 -10 -20 -18 0 -11 -11 -15 -40 -14 -59
3 -137 20 -145 33 -4 7 -11 11 -16 10 -35 -6 -47 15 -14 26 11 4 18 11 15 16
-3 5 3 19 14 31 26 28 27 48 1 55 -11 3 -17 9 -14 14 8 14 -10 39 -37 52 -13
7 -28 22 -34 35 -6 15 -15 20 -27 16 -10 -3 -18 0 -18 6 0 17 -47 4 -81 -23
l-28 -22 0 -225 -1 -226 90 10 c49 5 90 12 90 16 0 10 71 2 105 -12 35 -14 58
-38 74 -76 10 -24 17 -27 68 -30 68 -4 88 -13 108 -52 13 -24 22 -30 50 -30
27 0 37 -6 51 -29 15 -25 24 -29 75 -34 33 -3 75 -14 94 -26 28 -16 40 -18 59
-10 19 9 35 5 89 -20 36 -17 71 -31 77 -31 36 0 62 -217 40 -333 -8 -43 -16
-64 -24 -61 -13 5 -36 94 -36 141 0 44 -9 63 -36 74 -24 9 -32 33 -15 44 15 9
-28 75 -49 75 -10 0 -20 -6 -23 -12 -2 -8 -10 -1 -17 15 -15 30 -37 36 -47 11
-7 -18 14 -118 32 -154 7 -14 37 -49 65 -77 l52 -53 -4 -89 c-2 -53 -9 -96
-17 -105 -19 -22 -52 -20 -58 4 -3 11 -9 20 -14 20 -4 0 -14 18 -20 41 -14 47
-37 62 -76 52 -16 -4 -36 -6 -46 -4 -22 3 -86 67 -111 112 -23 39 -38 52 -84
76 -41 20 -50 38 -28 62 22 24 20 36 -7 54 -20 13 -26 13 -42 1 -26 -19 -56
-18 -49 1 4 8 1 15 -5 15 -6 0 -11 7 -11 14 0 11 -14 16 -47 18 -38 2 -50 8
-59 27 -7 13 -10 29 -8 35 6 15 61 39 77 33 7 -2 20 -1 30 2 16 6 16 8 1 29
-28 41 -72 56 -161 57 -77 0 -103 -8 -69 -21 12 -5 13 -11 4 -30 -16 -34 -46
-39 -98 -15 -25 11 -51 21 -57 21 -10 0 -13 -573 -13 -2830 0 -2744 1 -2830
18 -2830 11 0 26 -8 36 -18 14 -16 15 -32 10 -104 l-7 -84 -28 4 -29 4 0 -156
0 -156 3925 0 c2159 0 3925 3 3925 8 0 4 5 34 10 67 6 33 19 134 30 225 39
340 51 427 65 498 8 40 15 91 15 114 0 23 7 83 15 132 13 82 21 144 56 411 5
44 16 118 24 165 8 47 17 121 20 165 4 44 13 123 21 175 8 52 21 155 29 230 8
74 23 200 34 280 36 263 49 363 66 500 9 74 22 178 30 230 44 290 56 379 74
520 31 240 69 448 90 489 18 34 87 81 120 81 6 0 19 4 29 9 9 6 42 18 72 27
30 9 68 28 83 40 16 13 36 24 45 24 9 0 28 10 42 21 l25 21 -25 -6 c-14 -3
-72 -15 -130 -27 -115 -23 -231 -54 -270 -71 -14 -6 -29 -10 -34 -9 -5 1 -32
-7 -60 -18 -28 -12 -60 -22 -71 -24 -11 -2 -31 -9 -45 -15 -14 -6 -47 -14 -75
-18 -55 -8 -54 -8 -75 -17 -8 -4 -55 -13 -105 -21 -49 -8 -128 -25 -175 -36
-47 -12 -105 -24 -130 -27 -25 -3 -49 -9 -55 -13 -5 -5 -28 -9 -50 -11 -22 -1
-52 -9 -67 -16 -15 -7 -31 -13 -35 -12 -4 1 -25 1 -47 0 -26 -1 -37 -5 -33
-14 3 -9 -6 -11 -35 -8 -22 2 -43 -1 -47 -7 -3 -6 -36 -13 -71 -16 -36 -2 -74
-7 -85 -9 -11 -3 -51 -8 -90 -12 -38 -4 -73 -12 -77 -18 -4 -6 -24 -11 -46
-11 -22 -1 -38 -5 -35 -9 3 -5 -16 -5 -41 -2 -29 5 -46 3 -46 -3 0 -8 -81 -28
-100 -24 -3 0 -37 -8 -75 -19 -39 -11 -97 -23 -129 -25 -32 -3 -65 -12 -73
-20 -13 -12 -11 -14 8 -14 12 0 20 -2 17 -5 -3 -3 -38 -1 -77 5 -73 10 -119 3
-71 -12 48 -14 -146 1 -221 17 -19 4 -28 1 -33 -11 -6 -15 -8 -15 -27 2 -18
16 -43 20 -159 24 -123 4 -142 7 -169 28 -17 12 -36 22 -44 22 -18 0 -37 21
-37 41 0 22 63 77 98 85 53 12 60 15 66 30 3 9 1 24 -4 35 -7 13 -7 19 -1 19
7 0 7 9 -1 25 -8 17 -8 32 -1 47 9 21 11 20 32 -27 18 -39 21 -56 13 -77 -11
-31 -18 -31 148 1 58 11 126 23 153 27 49 7 65 24 23 24 -14 0 -27 4 -31 10
-3 5 -12 7 -19 4 -8 -3 -23 8 -36 26 -30 42 -17 53 65 58 l66 4 40 -42 40 -42
217 42 c119 23 244 50 277 59 l60 17 -3 64 c-3 43 -12 81 -28 112 -13 26 -24
56 -24 66 0 11 -17 39 -37 62 -35 39 -61 110 -42 110 5 0 6 6 3 13 -7 18 45
35 82 25 45 -11 60 -30 121 -148 26 -52 28 -62 27 -174 l-1 -118 46 5 c25 3
165 26 311 52 146 26 287 51 315 56 87 15 99 24 113 82 17 72 17 72 -24 111
-42 41 -64 79 -64 110 0 11 -16 43 -34 71 -19 27 -38 69 -42 92 l-6 42 66 31
c73 35 77 45 38 109 -16 27 -18 38 -10 57 12 25 21 28 80 25 35 -3 77 12 89
32 19 29 149 -55 149 -97 0 -36 42 -68 97 -73 104 -9 109 -16 118 -145 4 -46
8 -92 10 -103 7 -33 43 -65 74 -65 28 0 52 -21 84 -72 10 -16 24 -28 31 -28
24 0 206 60 361 120 83 31 197 72 255 89 180 56 182 57 110 81 -23 8 -67 37
-99 64 -31 28 -78 68 -104 90 -79 64 -57 97 67 99 61 2 77 -2 116 -25 62 -37
170 -144 172 -171 0 -12 2 -27 2 -34 1 -7 7 -18 13 -24 26 -26 248 25 368 84
17 8 72 23 123 32 113 21 136 38 158 113 30 104 45 137 77 170 35 36 65 40
120 17 32 -13 37 -13 61 6 20 15 34 18 61 13 l35 -6 0 120 c0 104 -3 123 -20
145 -11 14 -20 35 -20 47 0 11 -4 18 -10 15 -5 -3 -10 -19 -10 -34 0 -46 -22
-78 -61 -90 -57 -17 -75 -13 -112 22 -31 30 -33 36 -31 87 2 30 13 76 25 102
21 45 21 48 5 87 -26 66 -21 97 22 150 22 25 42 61 45 79 7 33 -8 72 -28 72
-6 0 -18 8 -26 18 -62 68 -110 86 -227 85 -92 -1 -94 -1 -128 -34 -19 -18 -36
-41 -40 -51 -6 -21 -43 -33 -73 -23 -11 3 -40 26 -65 50 -25 25 -49 45 -55 45
-5 0 -11 4 -13 10 -1 5 -32 -8 -67 -30 -47 -28 -80 -41 -120 -45 -71 -8 -115
-27 -137 -59 -15 -24 -15 -31 1 -101 9 -41 20 -77 25 -80 4 -3 11 -22 15 -43
6 -33 35 -82 49 -82 12 0 119 -110 113 -116 -4 -4 -31 1 -61 10 -40 13 -65 29
-95 62 -23 25 -41 49 -41 55 0 5 -5 9 -10 9 -6 0 -30 18 -53 41 -68 66 -127
101 -174 105 -43 2 -43 2 -43 -31 0 -26 -9 -43 -35 -69 -33 -33 -34 -36 -20
-63 20 -39 19 -79 -5 -128 -41 -84 -89 -77 -175 27 -57 70 -63 85 -44 120 9
17 17 19 49 14 29 -4 41 -2 54 13 15 17 15 19 1 31 -9 8 -42 15 -72 17 -31 2
-62 8 -69 14 -7 6 -39 12 -71 14 -32 2 -59 9 -61 15 -2 6 -22 34 -43 63 -22
28 -42 62 -45 74 -7 24 -54 43 -111 43 -49 0 -62 9 -88 60 -16 32 -48 67 -97
107 -59 47 -75 67 -83 98 -12 45 -78 153 -99 161 -8 3 -39 1 -69 -6 -51 -10
-56 -14 -81 -59 -14 -27 -26 -56 -26 -65 0 -9 -6 -16 -14 -16 -19 0 -68 85
-66 113 4 42 0 58 -12 56 -26 -5 -104 14 -136 32 -35 20 -122 26 -122 9 0 -12
-99 -12 -115 0 -5 4 -34 13 -63 19 -30 6 -60 18 -68 26 -9 8 -25 15 -38 15
-12 0 -37 13 -56 30 -19 16 -41 29 -47 30 -7 0 -13 7 -13 15 0 8 -5 15 -10 15
-16 0 -50 62 -50 93 0 15 -4 27 -9 27 -5 0 -11 10 -13 22 -2 19 -11 24 -49 29
-25 4 -61 15 -79 24 -18 9 -54 18 -81 19 -39 1 -54 -5 -90 -32 -59 -43 -112
-71 -186 -98 -34 -12 -70 -29 -79 -39 -42 -41 -55 -45 -124 -30 -71 16 -117
11 -170 -16 -19 -10 -53 -19 -75 -21 -34 -2 -42 1 -50 20 -5 12 -17 25 -26 27
-10 3 -16 12 -15 20 3 20 47 75 61 75 7 0 20 9 29 19 27 29 13 58 -32 66 -94
17 -189 92 -179 141 4 21 -3 28 -25 25 -4 0 -9 8 -13 18 -7 23 -43 48 -76 53
-13 1 -28 13 -34 26 -7 15 -18 22 -36 22 -22 0 -28 -5 -31 -28 -5 -36 3 -67
25 -92 24 -29 21 -33 -10 -13 -15 10 -24 13 -20 7 5 -8 -5 -12 -31 -12 -20 1
-64 -1 -97 -2 -71 -4 -106 5 -98 26 3 8 2 30 -1 50 -6 31 -10 34 -29 27 -12
-4 -40 -7 -61 -5 -22 1 -44 -2 -50 -7 -16 -12 -106 -22 -106 -12 0 5 -12 11
-27 14 -31 6 -129 77 -151 108 -7 10 -18 19 -24 19 -6 0 -16 7 -22 15 -9 13
-17 11 -53 -13 -24 -15 -43 -33 -43 -39 0 -7 -6 -13 -13 -13 -8 0 -19 -17 -25
-38 -7 -21 -20 -48 -31 -60 -25 -29 -86 -54 -115 -46 -25 6 -68 45 -73 67 -1
6 -8 31 -15 55 -11 38 -10 47 7 78 20 37 66 66 124 79 61 13 78 47 40 81 -20
18 -59 88 -59 106 0 21 -73 106 -110 127 -61 34 -95 70 -124 131 -14 30 -37
69 -50 85 -23 29 -28 30 -103 31 -43 0 -96 4 -118 9 -34 7 -38 6 -29 -6 8 -10
7 -21 -2 -39 -10 -19 -14 -20 -14 -7 0 9 -7 17 -15 17 -15 0 -50 58 -41 68 3
3 -16 13 -43 23 -128 44 -178 146 -111 222 17 19 30 40 30 46 0 19 -62 12
-145 -18 -83 -29 -165 -45 -165 -31 0 4 -8 10 -19 13 -10 2 -26 19 -35 38 -14
28 -15 38 -4 64 6 16 15 32 18 35 10 9 30 86 30 119 0 24 -9 40 -37 66 -20 19
-48 37 -62 40 -38 10 -131 57 -131 67 0 4 -5 8 -12 8 -6 0 -20 8 -30 17 -18
16 -34 17 -168 11 -26 -1 -185 14 -191 18 -4 2 -12 -3 -19 -11 -7 -8 -16 -15
-21 -15 -7 0 -68 -42 -114 -78 -6 -5 -39 -14 -75 -21 -36 -7 -85 -22 -110 -34
-54 -25 -120 -84 -120 -108 0 -26 -22 -72 -50 -105 -41 -48 -95 -57 -197 -33
-46 11 -90 22 -98 26 -11 4 -15 -2 -15 -21 0 -29 78 -139 92 -130 19 12 148
11 158 -1 7 -8 24 -9 62 -2 29 5 86 11 125 14 94 6 133 -14 188 -99 65 -99 69
-110 73 -185 2 -40 9 -77 16 -82 7 -6 31 -6 64 0 60 11 88 0 118 -46 36 -56
-6 -85 -52 -35 -31 32 -50 38 -57 18 -2 -8 -21 -13 -47 -13 -39 0 -46 -4 -63
-33 -15 -26 -19 -50 -18 -115 1 -106 -17 -178 -50 -194 -31 -16 -108 -16 -135
0 -12 7 -47 34 -78 61 -50 43 -56 52 -56 86 0 22 4 41 9 44 19 12 23 115 6
166 -9 28 -21 50 -26 50 -5 0 -9 6 -9 13 0 16 -52 67 -68 67 -6 0 -15 6 -19
14 -9 15 -53 31 -53 19 0 -8 -50 -33 -73 -37 -6 -1 -27 -8 -45 -15 -28 -12
-35 -12 -42 -1 -12 20 -75 3 -107 -29 -31 -31 -87 -53 -121 -48 -23 3 -55 39
-66 72 -3 11 -8 70 -10 130 -4 124 -9 142 -39 150 -12 4 -31 10 -42 15 -60 25
-106 39 -150 45 -28 4 -82 20 -121 36 -85 34 -148 42 -232 27 -94 -15 -123 -6
-192 61 -67 66 -72 84 -46 191 23 96 9 132 -47 121 -36 -8 -102 21 -118 51
-15 28 -61 22 -115 -14z m2361 -552 c30 -14 77 -47 105 -75 43 -43 48 -46 34
-19 -15 29 -15 34 0 65 20 42 55 44 126 7 39 -20 53 -23 69 -15 31 17 156 3
231 -26 36 -14 70 -26 75 -27 6 -1 25 -11 43 -23 l33 -20 -29 -19 c-16 -11
-45 -29 -64 -42 -22 -14 -42 -38 -52 -63 -9 -23 -29 -47 -47 -58 -31 -19 -31
-19 -8 -23 l24 -5 -25 -10 c-24 -10 -24 -10 -4 -21 11 -6 26 -7 34 -2 7 4 19
6 25 4 7 -3 15 2 18 10 11 28 23 17 25 -23 3 -43 -11 -59 -33 -41 -12 10 -15
9 -15 -9 0 -11 -5 -21 -11 -21 -6 0 -17 -7 -25 -15 -15 -15 -40 -14 -77 0 -10
4 -28 0 -43 -10 -21 -13 -38 -16 -81 -10 -41 5 -60 3 -77 -9 -31 -20 -45 -8
-82 66 -26 55 -29 57 -46 41 -22 -20 -114 -53 -123 -45 -3 4 -2 -6 4 -21 9
-22 7 -28 -9 -37 -24 -13 -55 14 -44 39 4 9 10 36 14 60 7 45 16 55 64 73 27
10 28 13 22 54 -5 43 -40 124 -53 124 -3 0 -22 -5 -42 -11 -50 -15 -88 1 -106
45 -11 27 -12 41 -3 68 25 74 60 84 153 44z m-200 -98 c7 -7 6 -9 -2 -4 -6 3
-13 1 -15 -6 -6 -16 -48 -20 -65 -6 -13 10 -12 14 4 25 19 15 61 10 78 -9z
m940 -28 c3 -5 1 -10 -4 -10 -6 0 -11 5 -11 10 0 6 2 10 4 10 3 0 8 -4 11 -10z
m-796 -393 c5 -13 16 -29 25 -36 17 -14 22 -76 7 -85 -5 -4 -28 6 -50 21 -30
19 -40 31 -35 42 4 9 9 31 12 49 5 38 28 43 41 9z m-102 -478 c12 -12 33 -43
45 -68 19 -39 23 -62 22 -148 -1 -113 -13 -155 -50 -172 -37 -17 -47 -14 -90
24 -21 19 -44 35 -51 35 -21 0 -25 20 -9 50 12 24 12 38 4 63 -6 18 -15 36
-19 42 -17 17 -9 51 16 73 20 18 25 31 25 70 0 26 5 53 11 59 15 15 66 0 96
-28z m-946 3 c-24 -16 -116 -48 -175 -59 -43 -8 -29 14 29 47 39 22 63 29 110
29 59 0 60 0 36 -17z m2466 -174 c27 -35 -48 -128 -103 -128 -27 0 -74 36 -74
57 0 24 39 71 63 76 47 9 105 6 114 -5z m534 -36 c49 -52 96 -191 79 -233 -16
-37 -31 -41 -66 -18 -16 11 -56 33 -90 49 -38 18 -65 39 -72 55 -9 19 -19 25
-42 25 -31 0 -60 -19 -60 -39 0 -6 -9 -16 -20 -23 -11 -7 -20 -19 -20 -26 0
-8 -6 -12 -12 -9 -7 2 -13 17 -13 33 0 22 5 30 22 32 14 2 28 18 42 47 12 25
21 50 21 56 0 21 43 71 74 85 18 8 50 13 76 10 36 -3 51 -11 81 -44z m-3898
-19 c-7 -2 -19 -2 -25 0 -7 3 -2 5 12 5 14 0 19 -2 13 -5z m-33 -43 c-13 -11
-25 -18 -28 -15 -3 2 6 13 19 24 31 25 39 17 9 -9z m-52 -22 c-2 -6 -10 -13
-16 -14 -7 -1 -8 0 -2 3 5 2 8 9 4 14 -3 5 0 9 6 9 7 0 10 -5 8 -12z m1825
-87 c-5 -3 -12 -14 -16 -24 -6 -15 -10 -16 -29 -6 -32 16 -32 16 -17 31 7 8
25 12 42 10 16 -3 25 -7 20 -11z m57 -51 c0 -5 -2 -10 -4 -10 -3 0 -8 5 -11
10 -3 6 -1 10 4 10 6 0 11 -4 11 -10z m1648 -9 c10 -5 24 -21 32 -35 7 -14 20
-26 28 -26 24 0 67 -37 87 -74 11 -20 23 -36 27 -36 5 0 8 -7 8 -15 0 -8 7
-15 15 -15 9 0 15 -6 14 -12 -1 -7 9 -38 23 -68 37 -82 41 -106 23 -160 -11
-33 -39 -72 -91 -129 -66 -70 -80 -81 -109 -81 -19 0 -37 -4 -40 -10 -3 -5
-19 -10 -34 -10 -34 0 -70 -25 -56 -38 15 -14 119 -44 141 -40 10 2 24 8 30
13 6 6 50 18 97 29 82 18 114 36 65 36 -14 0 -18 3 -12 8 9 5 8 11 -2 20 -11
10 -17 9 -31 -8 -10 -11 -26 -20 -37 -20 -20 0 -20 0 0 15 17 13 17 14 2 15
-19 0 -38 -28 -31 -46 2 -6 -15 -16 -39 -22 l-43 -11 23 19 c13 11 21 23 18
28 -6 11 93 106 114 109 8 1 52 5 97 9 78 6 82 6 107 -19 29 -30 34 -72 12
-115 -16 -32 -9 -55 33 -99 35 -38 47 -41 54 -13 3 13 17 22 36 26 18 4 36 15
42 25 13 26 114 55 143 41 11 -6 39 -13 62 -15 23 -3 57 -12 76 -21 36 -17
100 -96 103 -125 3 -37 19 -58 63 -86 37 -23 55 -46 85 -102 37 -72 38 -72 57
-53 35 35 114 25 165 -21 11 -10 39 -19 65 -21 47 -3 47 -3 84 -90 9 -23 22
-38 33 -38 9 0 55 -12 101 -26 124 -37 155 -80 116 -156 -13 -25 -20 -29 -42
-24 -39 10 -45 10 -70 2 -18 -6 -24 -4 -28 11 -15 55 -217 62 -238 7 -3 -8
-13 -14 -23 -14 -12 0 -14 -3 -6 -11 5 -5 43 -15 84 -20 40 -6 83 -15 94 -21
32 -16 85 -70 102 -103 22 -41 54 -158 62 -227 5 -44 14 -66 39 -95 50 -59 74
-111 79 -174 6 -57 5 -58 -33 -93 l-39 -35 18 -30 c9 -16 17 -38 17 -50 0 -21
-49 -64 -87 -76 -25 -7 -25 -9 -28 80 -3 70 -7 81 -44 118 -39 38 -111 151
-111 174 0 8 -9 30 -20 49 -12 18 -26 61 -32 96 -13 74 -49 118 -96 118 -59 0
-182 68 -182 101 0 9 16 36 35 59 19 23 35 50 35 59 0 9 18 36 40 60 22 23 40
47 40 52 0 15 -81 70 -155 104 -38 19 -86 48 -105 65 -35 31 -72 52 -100 56
-8 1 -22 3 -30 5 -17 5 -52 67 -44 80 3 5 -2 24 -11 43 -15 31 -15 40 -1 93
15 59 12 143 -5 143 -5 0 -9 6 -9 14 0 8 -16 20 -35 26 -45 15 -65 1 -65 -44
0 -17 -9 -50 -20 -73 -21 -47 -50 -58 -50 -20 0 26 -38 77 -58 77 -7 0 -12 3
-12 8 0 13 -74 32 -81 20 -4 -6 -12 -7 -18 -4 -6 4 -11 1 -11 -6 0 -8 -8 -29
-18 -48 -13 -26 -25 -36 -46 -37 -28 -2 -66 -32 -66 -53 0 -5 -4 -10 -10 -10
-5 0 -10 5 -10 12 0 6 -3 8 -7 5 -3 -4 -12 -2 -20 4 -9 9 -13 8 -13 0 0 -16
-13 -14 -36 7 -21 18 -80 42 -107 42 -9 0 -17 4 -17 9 0 5 -10 11 -22 15 -16
4 -29 -1 -43 -17 -53 -59 -115 -82 -115 -42 0 8 -4 15 -9 15 -5 0 -29 35 -54
78 -25 42 -56 88 -70 102 -58 59 -39 99 58 127 91 26 177 74 201 113 12 19 35
47 51 63 52 51 35 169 -27 184 -90 20 -200 67 -235 100 -11 11 -32 27 -46 37
-33 21 -67 10 -108 -36 -26 -28 -32 -31 -48 -21 -58 40 -145 64 -158 44 -14
-23 -43 -9 -88 43 -50 58 -56 76 -32 96 21 17 265 7 323 -13 39 -14 42 -13 42
3 0 39 59 62 143 55 32 -3 66 -9 75 -14z m-927 -33 c8 -15 6 -18 -18 -18 -31
0 -47 9 -50 27 -4 20 57 12 68 -9z m3092 -145 c22 -16 42 -33 44 -38 2 -6 -9
-24 -25 -40 -16 -17 -32 -39 -36 -50 -7 -19 -8 -19 -29 6 -12 14 -43 40 -69
58 -27 18 -48 38 -48 45 0 8 15 24 33 35 39 26 73 22 130 -16z m-6463 3 c0 -2
-7 -7 -16 -10 -8 -3 -12 -2 -9 4 6 10 25 14 25 6z m6701 -56 c11 -6 19 -21 19
-36 l0 -25 -30 18 c-16 9 -30 25 -30 35 0 20 13 23 41 8z m-3083 -61 c85 -40
99 -59 61 -81 -11 -7 -27 -28 -34 -45 -25 -59 -62 -41 -109 53 -15 30 -34 54
-46 57 -23 6 -35 30 -26 53 8 22 51 12 154 -37z m372 7 c0 -9 -8 -12 -26 -8
-16 3 -33 -2 -47 -15 -34 -31 -62 -43 -104 -43 -43 0 -57 7 -66 32 -9 26 10
32 55 17 35 -11 43 -10 81 9 49 24 107 29 107 8z m-1348 -152 c39 -38 88 -108
88 -128 0 -21 26 -33 126 -57 49 -11 97 -27 108 -35 11 -8 44 -14 73 -14 64 0
86 -20 103 -91 12 -47 13 -49 48 -49 21 0 48 -9 62 -20 14 -11 31 -20 38 -20
6 0 12 -4 12 -9 0 -12 -187 -13 -195 -1 -4 7 -13 7 -26 0 -15 -9 -17 -15 -9
-30 17 -31 -8 -35 -36 -5 -28 31 -29 33 -8 37 12 2 3 16 -32 53 -27 29 -49 45
-51 38 -3 -9 -15 -7 -44 8 -22 11 -56 21 -77 22 -22 1 -47 11 -62 25 -44 41
-57 44 -79 21 -21 -23 -38 -19 -51 14 -5 13 -38 38 -84 61 -41 21 -80 44 -86
51 -5 6 -29 18 -52 25 -39 13 -57 26 -58 41 0 11 105 78 140 88 58 17 117 7
152 -25z m4678 23 c9 -7 26 -27 39 -45 22 -32 23 -32 84 -26 65 6 141 -8 153
-28 12 -19 23 -101 17 -125 -4 -20 -9 -22 -56 -17 -54 6 -159 13 -212 16 -16
0 -56 0 -88 -2 -48 -2 -62 1 -81 19 -17 16 -35 21 -78 21 -76 0 -89 17 -52 65
15 20 45 46 68 57 22 11 47 27 55 36 38 37 121 53 151 29z m-5683 -20 c17 -2
38 -9 46 -15 8 -7 32 -9 65 -5 87 10 174 -36 185 -97 3 -14 8 -41 12 -60 5
-30 2 -40 -19 -63 -29 -31 -26 -46 14 -82 33 -29 80 -101 80 -121 0 -22 -28
-54 -49 -54 -9 0 -25 -7 -35 -15 -29 -22 -67 -18 -110 11 -33 23 -44 25 -91
19 l-52 -6 -2 -56 c-1 -64 -14 -87 -45 -77 -12 4 -33 7 -48 6 -16 -1 -28 2
-28 7 0 5 -10 11 -23 15 -26 6 -107 124 -107 156 0 18 4 21 23 16 12 -3 33 -9
47 -13 l25 -6 -27 36 c-16 19 -25 42 -22 51 6 15 -41 46 -70 46 -18 0 -77 54
-101 93 -10 15 -25 27 -35 27 -10 0 -23 6 -30 14 -6 8 -18 12 -26 9 -8 -3 -25
2 -39 11 -15 10 -34 14 -54 10 -20 -4 -31 -2 -31 5 0 6 -5 11 -11 11 -6 0 -9
-7 -5 -15 3 -10 -1 -15 -13 -15 -14 0 -17 6 -13 25 2 15 0 25 -7 25 -6 0 -11
-4 -11 -9 0 -6 -8 -9 -19 -8 -17 1 -17 3 -4 37 8 19 20 41 25 48 13 15 45 16
50 2 2 -7 16 -4 37 6 29 14 41 15 83 5 27 -6 62 -11 77 -11 15 0 48 -10 73
-23 25 -13 44 -18 42 -12 -12 30 111 86 171 79 22 -2 54 -6 72 -7z m4688 -29
c66 -12 127 -27 136 -35 8 -7 19 -13 23 -13 4 0 25 -20 48 -45 22 -24 65 -61
95 -82 30 -21 95 -83 144 -137 l89 -100 0 -57 c0 -63 3 -66 105 -119 62 -31
93 -79 77 -116 -15 -32 -48 -32 -56 1 -7 29 -50 63 -126 101 -30 14 -62 33
-71 40 -30 27 -105 42 -155 33 -26 -5 -52 -13 -59 -19 -7 -6 -25 -3 -53 11
-39 20 -48 39 -17 39 32 0 25 67 -11 101 -33 31 -120 37 -129 9 -5 -17 -8 -17
-32 6 -17 15 -33 22 -45 18 -10 -3 -18 -1 -18 5 0 5 -28 9 -65 9 -36 -1 -65
-6 -65 -11 0 -6 -21 -7 -52 -3 -128 15 -158 14 -158 -4 0 -10 7 -23 15 -30 16
-13 21 -40 7 -40 -4 0 -13 5 -20 12 -9 9 -12 9 -12 0 0 -7 -4 -12 -10 -12 -5
0 -10 6 -10 13 0 8 -10 13 -22 12 -19 -2 -23 -8 -23 -33 0 -34 -9 -42 -19 -16
-22 58 19 187 85 262 16 18 36 49 44 70 24 55 64 109 99 132 41 26 109 26 261
-2z m440 -47 c-9 -16 -25 -3 -18 15 4 10 9 12 15 6 6 -6 7 -15 3 -21z m-4231
-175 c44 -11 47 -14 32 -29 -29 -29 -95 -8 -96 31 0 15 2 15 64 -2z m7083
-374 c20 -13 -13 -52 -44 -52 -17 0 -43 -16 -74 -45 -43 -40 -53 -45 -95 -45
-42 0 -51 4 -85 41 -47 51 -42 69 20 69 80 1 196 12 201 20 12 17 57 24 77 12z
m-3317 -42 c0 -5 -4 -10 -9 -10 -6 0 -13 5 -16 10 -3 6 1 10 9 10 9 0 16 -4
16 -10z m10 -33 c0 -6 11 -33 25 -59 32 -61 32 -78 -1 -45 -20 20 -32 25 -55
20 -35 -7 -35 -2 -8 54 20 42 39 56 39 30z m-1736 -12 c-4 -8 -8 -15 -10 -15
-2 0 -4 7 -4 15 0 8 4 15 10 15 5 0 7 -7 4 -15z m-2950 -49 c31 -13 66 -49 66
-68 0 -15 -28 -8 -85 22 -76 40 -76 40 -70 51 9 13 51 11 89 -5z m2457 -7 c32
-10 36 -14 24 -25 -17 -17 -57 -18 -73 -2 -9 9 -20 9 -48 -1 -37 -14 -59 -7
-34 10 12 8 10 10 -9 5 -13 -3 -20 -1 -15 4 22 20 100 25 155 9z m2553 -53
c26 -8 70 -34 99 -59 87 -74 104 -82 135 -67 16 7 22 15 15 17 -17 6 -16 43 1
66 12 16 19 17 62 6 65 -16 153 -66 166 -95 8 -18 7 -29 -4 -46 -9 -13 -19
-43 -23 -66 -6 -35 -14 -47 -52 -73 -43 -30 -45 -33 -40 -72 4 -32 1 -44 -18
-63 -17 -16 -30 -22 -42 -16 -16 6 -15 7 5 10 12 2 22 8 22 13 0 6 -3 8 -7 6
-5 -3 -8 29 -8 71 0 51 -4 77 -12 79 -7 3 -13 10 -13 16 0 13 -65 77 -78 77
-4 0 -22 -4 -40 -9 -17 -5 -32 -6 -32 -1 0 4 -10 6 -22 2 -14 -3 -19 -2 -14 6
4 7 2 12 -4 12 -6 0 -20 -16 -31 -35 -12 -19 -25 -35 -30 -35 -16 0 -31 51
-19 65 13 16 3 45 -16 45 -21 0 -17 28 6 40 11 6 18 15 15 20 -3 4 1 11 7 13
9 4 8 6 -2 6 -9 1 -27 9 -40 18 -24 17 -110 28 -110 14 0 -4 -16 -13 -35 -20
-19 -7 -35 -18 -35 -26 0 -7 -7 -16 -16 -19 -8 -3 -12 -10 -9 -16 3 -5 -3 -10
-14 -10 -12 0 -21 -4 -21 -10 0 -5 -7 -10 -15 -10 -10 0 -15 -10 -15 -30 0
-16 -4 -30 -8 -30 -4 0 -8 38 -10 84 -1 78 0 85 21 99 16 10 28 12 40 5 20
-10 123 7 132 23 9 13 55 11 109 -5z m-4570 -62 l-6 -34 45 0 c27 0 49 -6 57
-15 43 -52 85 -181 75 -232 -7 -41 -20 -43 -23 -3 -1 17 -11 39 -22 50 -11 11
-20 33 -20 48 0 23 -5 28 -27 30 -16 2 -64 6 -108 10 l-80 7 -1 50 c-2 59 18
99 60 119 42 20 58 11 50 -30z m-378 8 c16 -15 47 -50 69 -78 22 -27 63 -72
92 -99 29 -28 53 -58 53 -66 0 -28 -36 -52 -68 -44 -33 7 -58 32 -116 118 -22
32 -60 76 -85 99 l-46 40 35 29 c19 16 35 29 36 29 0 0 14 -13 30 -28z m-233
-25 c3 -8 20 -21 39 -30 18 -9 27 -17 20 -17 -8 0 -27 -10 -44 -21 -19 -14
-33 -18 -39 -12 -14 14 -17 82 -5 87 19 8 24 6 29 -7z m1973 -23 c-9 -8 -16
-23 -16 -32 -1 -12 -5 -10 -15 8 -12 23 -12 26 8 32 36 10 39 9 23 -8z m-236
-54 c0 -5 -4 -10 -10 -10 -5 0 -10 5 -10 10 0 6 5 10 10 10 6 0 10 -4 10 -10z
m3570 -70 c0 -5 -4 -10 -10 -10 -5 0 -10 5 -10 10 0 6 5 10 10 10 6 0 10 -4
10 -10z m-29 -20 c14 -8 17 -15 10 -28 -4 -9 -6 -23 -3 -30 3 -11 0 -12 -15
-4 -35 19 -47 40 -33 57 15 18 16 18 41 5z m-3370 -146 l24 -27 -27 18 c-16 9
-28 21 -28 26 0 14 5 11 31 -17z m1653 -14 c22 -22 15 -50 -13 -50 -25 0 -61
37 -61 63 0 16 5 18 28 12 15 -3 36 -15 46 -25z m-1547 14 c-3 -3 -12 -4 -19
-1 -8 3 -5 6 6 6 11 1 17 -2 13 -5z m69 -60 c-6 -15 -8 -15 -24 2 -11 12 -27
18 -44 16 -16 -2 -28 1 -28 7 0 12 37 24 50 16 5 -3 10 -1 10 5 0 6 10 2 21
-9 14 -13 19 -26 15 -37z m55 25 c8 -16 6 -19 -10 -19 -14 0 -19 5 -15 15 4 8
1 15 -5 15 -6 0 -11 4 -11 10 0 15 29 0 41 -21z m-261 11 c13 -9 13 -10 0 -10
-8 0 -22 5 -30 10 -13 9 -13 10 0 10 8 0 22 -5 30 -10z m-1052 -64 c29 -43 39
-86 19 -86 -22 0 -95 75 -94 97 5 49 37 45 75 -11z m-111 8 c-3 -3 -12 -4 -19
-1 -8 3 -5 6 6 6 11 1 17 -2 13 -5z m1912 -51 c28 -14 49 -28 46 -31 -2 -3
-12 1 -21 9 -15 12 -16 11 -9 -11 7 -22 6 -23 -8 -12 -9 8 -21 11 -28 7 -6 -4
-16 -1 -21 6 -7 11 -11 11 -15 2 -7 -18 -33 -16 -33 2 0 8 -4 15 -10 15 -5 0
-10 7 -10 16 0 10 5 14 16 10 8 -3 12 -2 9 4 -12 19 33 10 84 -17z m-2011 -42
c58 -31 122 -137 149 -248 l16 -63 -33 -87 c-19 -49 -42 -105 -52 -126 -21
-43 -59 -63 -88 -47 -19 10 -80 126 -80 151 1 35 -67 143 -109 175 -60 46 -72
65 -78 128 l-6 54 54 28 c121 61 165 68 227 35z m-1853 -14 c37 -19 55 -49 53
-85 -2 -29 -5 -33 -25 -29 -12 2 -24 0 -25 -4 -4 -11 -134 90 -131 101 1 4
-10 11 -25 16 l-27 7 30 7 c37 9 123 2 150 -13z m1426 -6 l24 -20 -22 -22
c-26 -26 -105 -41 -145 -27 -34 12 -35 18 -5 46 46 44 111 54 148 23z m3743
-47 c20 -8 20 -23 -1 -46 -20 -22 -27 -22 -47 -2 -12 12 -13 20 -6 35 11 20
27 23 54 13z m-354 -43 c0 -15 -12 -21 -66 -31 -45 -9 -69 -9 -76 -2 -25 25
22 50 95 51 40 1 47 -2 47 -18z m-1862 -3 c7 -7 12 -8 12 -2 0 13 126 -8 218
-36 69 -21 133 -59 100 -60 -13 0 -16 -8 -13 -36 2 -28 -2 -38 -15 -41 -15 -4
-29 -30 -30 -54 0 -4 14 -9 30 -11 17 -3 30 -1 30 3 0 4 16 1 35 -7 20 -8 60
-17 91 -19 30 -3 63 -9 72 -14 9 -5 38 -12 64 -16 39 -6 49 -4 67 14 52 52
140 14 219 -95 24 -32 58 -70 75 -83 32 -24 32 -25 35 -119 1 -71 -2 -101 -13
-118 -8 -13 -15 -29 -15 -37 0 -14 -52 -57 -70 -57 -18 0 -84 37 -100 57 -9
10 -30 30 -48 45 -17 14 -41 46 -53 70 -25 48 -67 98 -83 98 -6 0 -53 20 -104
45 -78 38 -99 44 -131 39 -36 -6 -45 -2 -107 46 -38 29 -82 68 -97 86 -35 42
-57 43 -85 5 -18 -25 -28 -29 -69 -29 -47 0 -112 20 -114 35 -2 20 -10 131
-11 161 -1 20 5 37 13 43 8 5 10 9 6 9 -4 0 4 12 18 27 14 15 25 35 26 43 0
10 2 11 6 3 2 -7 9 -13 15 -13 6 0 8 7 4 15 -7 18 5 20 22 3z m373 -71 c-10
-9 -11 -8 -5 6 3 10 9 15 12 12 3 -3 0 -11 -7 -18z m164 -57 c8 -13 -5 -13
-25 0 -13 8 -13 10 2 10 9 0 20 -4 23 -10z m10 -30 c3 -5 -3 -10 -15 -10 -12
0 -18 5 -15 10 3 6 10 10 15 10 5 0 12 -4 15 -10z m-1355 -68 c0 -13 -3 -12
-15 4 -19 25 -19 40 0 24 8 -7 15 -20 15 -28z m36 -45 c20 -12 17 -37 -5 -37
-12 0 -20 9 -24 27 -6 30 4 56 11 33 3 -8 11 -19 18 -23z m34 -193 c30 -41 55
-82 56 -90 4 -24 -55 -8 -108 28 -23 16 -28 27 -28 63 0 46 7 75 20 75 4 0 31
-34 60 -76z m1976 1 c8 -20 -18 -78 -28 -62 -5 8 -8 7 -8 -5 0 -34 -34 -39
-81 -12 -24 14 -52 27 -61 31 -22 7 -23 22 -3 30 24 8 127 30 153 32 12 0 25
-6 28 -14z m3152 -336 c3 -39 -12 -171 -88 -784 -5 -44 -21 -174 -35 -290 -56
-459 -66 -544 -80 -635 -8 -52 -19 -142 -25 -200 -6 -58 -18 -145 -25 -195 -8
-49 -19 -130 -25 -180 -19 -181 -41 -341 -70 -515 -12 -73 -25 -162 -44 -294
-28 -200 -49 -321 -57 -341 -4 -11 -11 -51 -15 -90 -5 -38 -9 -74 -10 -80 -1
-5 -3 -28 -4 -50 -1 -22 -4 -32 -7 -22 -8 32 -23 17 -25 -25 -3 -91 -10 -105
-18 -38 l-7 55 -1 -52 c-2 -61 -11 -67 -30 -20 -7 17 -18 40 -23 49 -5 10 -9
36 -9 58 0 22 -4 40 -10 40 -6 0 -10 33 -10 80 0 64 -3 80 -15 80 -12 0 -15
16 -15 80 0 64 -3 80 -15 80 -12 0 -15 17 -15 90 0 68 -3 90 -13 90 -7 0 -25
13 -40 28 -21 21 -27 38 -27 70 0 23 -4 42 -10 42 -5 0 -10 -18 -10 -40 0 -29
-4 -40 -15 -40 -12 0 -15 16 -15 80 0 64 -3 80 -15 80 -11 0 -15 12 -15 50 0
35 -4 50 -13 50 -7 0 -26 13 -42 30 -16 16 -39 30 -52 30 -20 0 -23 5 -23 40
0 29 -4 40 -15 40 -11 0 -15 11 -15 38 -1 29 -9 45 -40 77 l-40 40 30 3 c18 2
30 9 30 18 0 8 -5 14 -10 14 -6 0 -16 11 -22 25 -6 14 -19 25 -30 25 -13 0
-18 7 -18 25 0 23 -4 25 -40 25 -29 0 -40 4 -40 15 0 11 11 15 40 15 22 0 40
5 40 10 0 6 -18 10 -40 10 -27 0 -47 7 -60 20 -28 28 -25 40 10 40 28 0 45 20
18 20 -16 1 -88 66 -88 80 0 16 -37 12 -44 -5 -3 -8 -12 -15 -20 -15 -8 0 -16
-6 -19 -12 -3 -9 -7 -6 -13 6 -5 13 -3 21 4 24 16 5 16 52 0 52 -6 0 -8 3 -5
6 8 8 -11 44 -23 44 -5 0 -16 -12 -23 -26 -9 -17 -17 -23 -21 -15 -4 6 -4 11
1 11 8 0 10 27 12 170 1 59 4 80 11 70 7 -10 9 15 8 80 -2 87 3 194 17 390 19
272 36 499 45 585 5 55 12 141 15 190 8 145 25 287 38 325 10 30 17 35 42 35
28 0 55 6 150 36 40 12 95 26 240 59 44 10 103 25 130 33 44 14 148 38 225 53
19 3 270 64 405 97 11 3 34 4 50 4 28 -2 30 -5 33 -48z m-681 -25 c-3 -3 -12
-4 -19 -1 -8 3 -5 6 6 6 11 1 17 -2 13 -5z m-144 -11 c-7 -2 -19 -2 -25 0 -7
3 -2 5 12 5 14 0 19 -2 13 -5z m62 -3 c-3 -5 -16 -10 -28 -9 -21 0 -21 1 -2 9
28 12 37 12 30 0z m-1955 -30 c-55 -6 -58 -7 -21 -8 63 -3 48 -9 -38 -16 -40
-3 -79 -10 -85 -15 -6 -4 -56 -12 -111 -16 -55 -4 -113 -9 -130 -11 -137 -14
-232 -20 -246 -17 -9 3 -33 0 -53 -5 -20 -6 -36 -7 -36 -2 0 5 -12 5 -27 1
-34 -9 -84 -6 -138 7 -45 11 -47 11 55 18 41 3 100 12 130 19 30 7 80 13 110
14 30 0 138 8 240 16 102 8 204 12 227 10 23 -3 45 0 48 5 3 6 36 9 73 8 l67
-1 -65 -7z m1833 3 c-7 -2 -19 -2 -25 0 -7 3 -2 5 12 5 14 0 19 -2 13 -5z
m-300 -50 c-7 -2 -21 -2 -30 0 -10 3 -4 5 12 5 17 0 24 -2 18 -5z m-2480 -50
c-7 -2 -19 -2 -25 0 -7 3 -2 5 12 5 14 0 19 -2 13 -5z m2288 -1958 c7 -5 6
-12 -3 -22 -7 -9 -11 -26 -10 -37 2 -12 -7 -34 -19 -49 -12 -16 -19 -36 -16
-47 3 -11 1 -20 -4 -20 -10 0 -12 76 -3 143 7 45 20 53 55 32z m119 -115 c0
-71 -10 -86 -32 -50 -7 11 -21 20 -30 20 -10 0 -18 5 -18 10 0 6 11 10 25 10
23 0 25 4 25 40 0 29 4 40 15 40 12 0 15 -14 15 -70z m240 -346 c0 -14 -3 -14
-15 -4 -8 7 -15 14 -15 16 0 2 7 4 15 4 8 0 15 -7 15 -16z m160 -256 l0 -32
-30 29 c-16 16 -30 30 -30 32 0 2 14 3 30 3 27 0 30 -3 30 -32z m0 -64 c0 -14
-3 -14 -15 -4 -8 7 -15 14 -15 16 0 2 7 4 15 4 8 0 15 -7 15 -16z m160 -264
c0 -29 -4 -40 -15 -40 -11 0 -15 11 -15 40 0 29 4 40 15 40 11 0 15 -11 15
-40z m-6735 -466 c14 -14 15 -31 9 -117 -4 -57 -3 -98 2 -96 46 21 84 44 84
51 0 4 -9 12 -19 17 -18 10 -46 69 -37 78 7 7 70 -28 83 -46 34 -44 5 -109
-66 -145 -28 -15 -38 -16 -62 -5 -17 6 -34 20 -39 30 -6 10 -10 74 -10 144 0
121 1 125 19 115 11 -5 27 -17 36 -26z"/>
<path d="M2321 5154 c0 -11 3 -14 6 -6 3 7 2 16 -1 19 -3 4 -6 -2 -5 -13z"/>
<path d="M3538 4733 c7 -3 16 -2 19 1 4 3 -2 6 -13 5 -11 0 -14 -3 -6 -6z"/>
<path d="M6301 2734 c0 -11 3 -14 6 -6 3 7 2 16 -1 19 -3 4 -6 -2 -5 -13z"/>
<path d="M6282 2240 c0 -44 3 -80 7 -80 9 0 7 148 -2 156 -2 2 -4 -32 -5 -76z"/>
<path d="M6311 2254 c0 -11 3 -14 6 -6 3 7 2 16 -1 19 -3 4 -6 -2 -5 -13z"/>
<path d="M6312 2185 c0 -16 2 -22 5 -12 2 9 2 23 0 30 -3 6 -5 -1 -5 -18z"/>
<path d="M6290 2117 c0 -43 -17 -50 -23 -9 -2 15 -2 11 0 -8 2 -19 4 -50 3
-67 0 -18 4 -33 9 -33 10 0 26 139 17 148 -3 3 -6 -11 -6 -31z"/>
<path d="M6720 1376 c0 -9 7 -16 16 -16 9 0 14 5 12 12 -6 18 -28 21 -28 4z"/>
<path d="M7040 650 c0 -5 5 -10 10 -10 6 0 10 5 10 10 0 6 -4 10 -10 10 -5 0
-10 -4 -10 -10z"/>
<path d="M7122 375 c0 -16 2 -22 5 -12 2 9 2 23 0 30 -3 6 -5 -1 -5 -18z"/>
<path d="M1684 8334 c3 -9 6 -21 6 -27 0 -8 3 -8 11 0 13 13 5 43 -12 43 -6 0
-8 -7 -5 -16z"/>
<path d="M7100 8230 c0 -5 -6 -10 -13 -10 -14 0 -55 -42 -74 -77 -7 -13 -13
-42 -13 -65 0 -24 -5 -59 -10 -78 -6 -19 -17 -68 -26 -108 -20 -95 -32 -122
-52 -114 -11 4 -14 1 -9 -11 6 -15 -2 -17 -56 -17 -35 0 -87 6 -117 14 -97 24
-131 28 -146 15 -7 -6 -11 -16 -7 -22 4 -6 0 -8 -10 -4 -12 5 -19 -1 -24 -21
-5 -23 -63 -91 -63 -74 0 3 -8 -3 -19 -12 -31 -28 -115 -35 -231 -20 -251 33
-285 42 -296 79 -7 21 -70 85 -85 85 -4 0 -16 -12 -26 -26 -39 -58 -57 -68
-114 -65 -33 1 -62 9 -74 19 -27 23 -80 52 -95 52 -6 0 -18 -7 -26 -15 -9 -8
-24 -15 -34 -15 -11 0 -23 -7 -27 -15 -9 -16 -100 -65 -121 -65 -17 0 -95 -40
-104 -53 -9 -14 14 -57 53 -102 48 -54 69 -49 158 44 86 88 105 101 155 101
38 0 116 -35 116 -52 0 -6 7 -7 16 -4 8 3 13 2 10 -2 -2 -4 28 -6 68 -5 65 2
145 -12 161 -28 9 -10 13 -99 4 -93 -15 9 -10 -20 7 -44 22 -31 32 -28 44 16
10 39 37 70 77 91 50 25 216 4 301 -38 l43 -22 35 20 c103 61 210 -10 319
-211 32 -59 66 -115 76 -124 16 -14 20 -11 57 53 69 117 184 173 311 152 81
-14 114 -31 163 -81 21 -22 42 -37 48 -33 15 9 12 43 -5 52 -8 5 -19 23 -24
41 -8 26 -5 38 15 67 23 34 33 95 16 95 -12 0 -40 52 -43 80 -1 14 1 50 5 81
9 60 -7 105 -61 177 -15 20 -28 54 -32 88 -7 47 -13 59 -47 88 -37 32 -94 128
-94 159 0 23 -40 67 -61 67 -10 0 -19 -4 -19 -10z"/>
<path d="M7390 8144 c0 -40 32 -124 47 -124 5 0 37 -25 73 -57 64 -55 96 -105
83 -126 -3 -6 -1 -7 6 -3 6 4 14 0 18 -9 3 -10 0 -21 -7 -25 -8 -5 -10 -17 -6
-34 3 -14 3 -26 -1 -26 -13 0 -6 -72 11 -118 10 -26 13 -54 9 -70 -6 -25 -5
-26 11 -12 25 20 40 58 42 105 1 22 5 54 9 70 4 20 3 25 -3 17 -7 -11 -11 -10
-17 5 -4 10 -9 25 -11 33 -2 8 -7 16 -13 18 -5 2 -3 14 5 30 8 15 14 48 14 74
0 27 5 49 13 52 10 5 10 7 0 12 -15 7 -17 34 -3 34 13 0 -21 40 -35 40 -34 1
-90 42 -121 88 -19 29 -41 52 -48 52 -7 0 -28 3 -45 6 -30 6 -31 6 -31 -32z"/>
<path d="M4543 8097 c-45 -24 -64 -61 -41 -82 36 -33 95 -44 203 -38 73 4 108
10 112 19 5 12 -34 75 -51 83 -4 2 -16 12 -24 22 -24 28 -142 26 -199 -4z"/>
<path d="M2315 8050 c-3 -5 -1 -10 4 -10 6 0 11 5 11 10 0 6 -2 10 -4 10 -3 0
-8 -4 -11 -10z"/>
<path d="M2291 8043 c-1 -7 8 -17 19 -23 14 -7 20 -7 20 0 0 5 -6 10 -14 10
-8 0 -17 6 -19 13 -4 9 -6 9 -6 0z"/>
<path d="M4990 7660 c0 -5 5 -10 10 -10 6 0 10 5 10 10 0 6 -4 10 -10 10 -5 0
-10 -4 -10 -10z"/>
<path d="M5780 7570 c0 -5 7 -10 15 -10 8 0 15 5 15 10 0 6 -7 10 -15 10 -8 0
-15 -4 -15 -10z"/>
<path d="M1777 7514 c-12 -13 -8 -24 19 -49 35 -33 44 -31 41 5 -2 23 -7 30
-24 30 -12 0 -23 5 -25 11 -2 5 -7 7 -11 3z"/>
<path d="M8495 7189 c-38 -4 -87 -5 -107 -2 -20 3 -62 2 -93 -2 -54 -6 -57 -8
-74 -48 -10 -23 -24 -66 -30 -95 l-13 -52 49 -53 c26 -29 61 -80 76 -113 42
-87 42 -87 58 -95 8 -4 36 -18 63 -31 28 -13 68 -40 90 -60 21 -21 43 -38 47
-38 5 0 11 17 14 38 8 48 25 93 42 113 7 8 13 20 13 25 0 14 41 38 75 45 l30
6 -28 11 c-16 7 -39 19 -50 28 -21 15 -19 16 31 11 30 -2 48 -1 42 3 -6 4 -11
10 -11 14 5 39 -1 62 -21 71 -15 7 -25 22 -29 45 -5 27 -86 175 -101 184 -2 1
-34 -1 -73 -5z m145 -245 c0 -17 -22 -14 -28 4 -2 7 3 12 12 12 9 0 16 -7 16
-16z"/>
<path d="M567 7123 c-26 -14 -45 -28 -43 -31 7 -6 76 27 94 45 20 19 3 15 -51
-14z"/>
<path d="M225 6910 c3 -5 8 -10 11 -10 2 0 4 5 4 10 0 6 -5 10 -11 10 -5 0 -7
-4 -4 -10z"/>
<path d="M206 6875 c4 -8 8 -15 10 -15 2 0 4 7 4 15 0 8 -4 15 -10 15 -5 0 -7
-7 -4 -15z"/>
<path d="M7 6283 c-4 -3 -7 -26 -7 -50 0 -44 0 -44 22 -29 12 9 33 16 45 16
16 0 23 6 23 19 0 13 -5 18 -18 15 -9 -3 -28 -1 -42 5 -19 7 -20 10 -7 10 10
1 15 6 12 11 -7 12 -19 13 -28 3z"/>
<path d="M126 6264 c-20 -20 -21 -44 -1 -44 8 0 15 5 15 10 0 6 6 10 14 10 9
0 12 7 9 20 -6 24 -16 25 -37 4z"/>
<path d="M10215 5982 c-26 -18 -39 -113 -16 -112 24 2 41 31 41 74 0 45 -5 53
-25 38z"/>
<path d="M7830 5046 c0 -2 11 -34 25 -70 14 -37 25 -86 25 -110 0 -41 -4 -48
-51 -88 -27 -23 -54 -44 -60 -46 -5 -2 -9 -34 -9 -70 0 -37 -7 -89 -15 -116
-9 -30 -12 -53 -6 -59 13 -13 252 50 275 73 18 18 18 19 -5 50 -13 17 -39 48
-56 69 -35 41 -39 57 -20 81 20 24 73 59 101 66 17 4 26 13 26 26 0 26 -28 78
-41 78 -8 0 -7 -5 1 -15 10 -12 10 -15 -4 -15 -9 0 -16 6 -16 13 0 7 -17 21
-37 30 -21 10 -54 38 -73 62 -19 25 -41 45 -47 45 -7 0 -13 -2 -13 -4z"/>
<path d="M9950 4708 c-14 -6 -52 -24 -85 -39 -48 -23 -94 -33 -223 -49 -172
-22 -198 -28 -249 -63 -27 -18 -33 -28 -33 -60 0 -21 7 -49 16 -63 19 -29 15
-103 -16 -294 -10 -63 -32 -209 -50 -325 -17 -115 -35 -230 -40 -255 -5 -25
-19 -115 -30 -200 -12 -85 -30 -200 -40 -255 -10 -55 -23 -140 -30 -190 -6
-49 -23 -155 -36 -235 -14 -80 -33 -201 -44 -270 -26 -180 -29 -196 -45 -285
-9 -44 -24 -145 -36 -225 -18 -130 -28 -186 -59 -340 -5 -25 -16 -97 -26 -160
-9 -63 -26 -162 -39 -220 -23 -107 -36 -182 -60 -350 -16 -107 -83 -444 -96
-475 -4 -11 -15 -63 -24 -115 -8 -52 -22 -123 -30 -157 -8 -34 -15 -66 -15
-72 0 -8 228 -11 790 -11 l790 0 -2 1637 c-3 1629 -3 1638 -23 1641 -98 14
-175 61 -208 127 -31 63 -71 220 -71 285 -1 69 0 72 89 192 19 26 40 69 46 95
37 153 69 226 136 309 32 40 33 44 33 129 0 85 -1 88 -34 125 -18 20 -37 44
-42 51 -11 17 -110 99 -141 117 -27 14 -40 14 -73 0z"/>
<path d="M6338 3903 c7 -3 16 -2 19 1 4 3 -2 6 -13 5 -11 0 -14 -3 -6 -6z"/>
</g>
</svg>
